HIERARCHY
ROOT hip
{
  OFFSET 0 0 0
  CHANNELS 6 Xposition Yposition Zposition Zrotation Yrotation Xrotation
  JOINT abdomen
  {
    OFFSET 0 20.6881 -0.73152
    CHANNELS 3 Zrotation Xrotation Yrotation
    JOINT chest
    {
      OFFSET 0 11.7043 -0.48768
      CHANNELS 3 Zrotation Xrotation Yrotation
      JOINT neck
      {
        OFFSET 0 22.1894 -2.19456
        CHANNELS 3 Zrotation Xrotation Yrotation
        JOINT head
        {
          OFFSET -0.24384 7.07133 1.2192
          CHANNELS 3 Zrotation Xrotation Yrotation
          JOINT leftEye
          {
            OFFSET 4.14528 8.04674 8.04672
            CHANNELS 3 Zrotation Xrotation Yrotation
            End Site
            {
              OFFSET 1 0 0
            }
          }
          JOINT rightEye
          {
            OFFSET -3.6576 8.04674 8.04672
            CHANNELS 3 Zrotation Xrotation Yrotation
            End Site
            {
              OFFSET 1 0 0
            }
          }
        }
      }
      JOINT rCollar
      {
        OFFSET -2.68224 19.2634 -4.8768
        CHANNELS 3 Zrotation Xrotation Yrotation
        JOINT rShldr
        {
          OFFSET -8.77824 -1.95073 1.46304
          CHANNELS 3 Zrotation Xrotation Yrotation
          JOINT rForeArm
          {
            OFFSET -28.1742 -1.7115 0.48768
            CHANNELS 3 Zrotation Xrotation Yrotation
            JOINT rHand
            {
              OFFSET -22.5879 0.773209 7.07136
              CHANNELS 3 Zrotation Xrotation Yrotation
              JOINT rThumb1
              {
                OFFSET -1.2192 -0.487915 3.41376
                CHANNELS 3 Zrotation Xrotation Yrotation
                JOINT rThumb2
                {
                  OFFSET -3.37035 -0.52449 3.41376
                  CHANNELS 3 Zrotation Xrotation Yrotation
                  End Site
                  {
                    OFFSET -1.78271 -1.18214 1.43049
                  }
                }
              }
              JOINT rIndex1
              {
                OFFSET -7.75947 0.938293 5.60832
                CHANNELS 3 Zrotation Xrotation Yrotation
                JOINT rIndex2
                {
                  OFFSET -2.54057 -0.884171 1.56538
                  CHANNELS 3 Zrotation Xrotation Yrotation
                  End Site
                  {
                    OFFSET -1.62519 -0.234802 1.16502
                  }
                }
              }
              JOINT rMid1
              {
                OFFSET -8.24714 1.18213 3.41376
                CHANNELS 3 Zrotation Xrotation Yrotation
                JOINT rMid2
                {
                  OFFSET -3.10165 -0.590103 1.0647
                  CHANNELS 3 Zrotation Xrotation Yrotation
                  End Site
                  {
                    OFFSET -2.48547 -0.328903 0.83742
                  }
                }
              }
              JOINT rRing1
              {
                OFFSET -8.82822 0.546677 1.51678
                CHANNELS 3 Zrotation Xrotation Yrotation
                JOINT rRing2
                {
                  OFFSET -2.60934 -0.819778 -0.0198488
                  CHANNELS 3 Zrotation Xrotation Yrotation
                  End Site
                  {
                    OFFSET -2.33842 -0.294052 0.168128
                  }
                }
              }
              JOINT rPinky1
              {
                OFFSET -8.27202 -0.0477905 -0.4584
                CHANNELS 3 Zrotation Xrotation Yrotation
                JOINT rPinky2
                {
                  OFFSET -1.82734 -0.647385 -0.700984
                  CHANNELS 3 Zrotation Xrotation Yrotation
                  End Site
                  {
                    OFFSET -1.69225 -0.51767 -0.607171
                  }
                }
              }
            }
          }
        }
      }
      JOINT lCollar
      {
        OFFSET 2.68224 19.2634 -4.8768
        CHANNELS 3 Zrotation Xrotation Yrotation
        JOINT lShldr
        {
          OFFSET 8.77824 -1.95073 1.46304
          CHANNELS 3 Zrotation Xrotation Yrotation
          JOINT lForeArm
          {
            OFFSET 28.1742 -1.7115 0.48768
            CHANNELS 3 Zrotation Xrotation Yrotation
            JOINT lHand
            {
              OFFSET 22.5879 0.773209 7.07136
              CHANNELS 3 Zrotation Xrotation Yrotation
              JOINT lThumb1
              {
                OFFSET 1.2192 -0.487915 3.41376
                CHANNELS 3 Zrotation Xrotation Yrotation
                JOINT lThumb2
                {
                  OFFSET 3.37035 -0.52449 3.41376
                  CHANNELS 3 Zrotation Xrotation Yrotation
                  End Site
                  {
                    OFFSET 1.78271 -1.18214 1.43049
                  }
                }
              }
              JOINT lIndex1
              {
                OFFSET 7.75947 0.938293 5.60832
                CHANNELS 3 Zrotation Xrotation Yrotation
                JOINT lIndex2
                {
                  OFFSET 2.54057 -0.884171 1.56538
                  CHANNELS 3 Zrotation Xrotation Yrotation
                  End Site
                  {
                    OFFSET 1.62519 -0.234802 1.16502
                  }
                }
              }
              JOINT lMid1
              {
                OFFSET 8.24714 1.18213 3.41376
                CHANNELS 3 Zrotation Xrotation Yrotation
                JOINT lMid2
                {
                  OFFSET 3.10165 -0.590103 1.0647
                  CHANNELS 3 Zrotation Xrotation Yrotation
                  End Site
                  {
                    OFFSET 2.48547 -0.328903 0.83742
                  }
                }
              }
              JOINT lRing1
              {
                OFFSET 8.82822 0.546677 1.51678
                CHANNELS 3 Zrotation Xrotation Yrotation
                JOINT lRing2
                {
                  OFFSET 2.60934 -0.819778 -0.0198488
                  CHANNELS 3 Zrotation Xrotation Yrotation
                  End Site
                  {
                    OFFSET 2.33842 -0.294052 0.168128
                  }
                }
              }
              JOINT lPinky1
              {
                OFFSET 8.27202 -0.0477905 -0.4584
                CHANNELS 3 Zrotation Xrotation Yrotation
                JOINT lPinky2
                {
                  OFFSET 1.82734 -0.647385 -0.700984
                  CHANNELS 3 Zrotation Xrotation Yrotation
                  End Site
                  {
                    OFFSET 1.69225 -0.51767 -0.607171
                  }
                }
              }
            }
          }
        }
      }
    }
  }
  JOINT rButtock
  {
    OFFSET -8.77824 4.35084 1.2192
    CHANNELS 3 Zrotation Xrotation Yrotation
    JOINT rThigh
    {
      OFFSET 0 -1.70687 -2.19456
      CHANNELS 3 Zrotation Xrotation Yrotation
      JOINT rShin
      {
        OFFSET 0 -36.8199 0.73152
        CHANNELS 3 Zrotation Xrotation Yrotation
        JOINT rFoot
        {
          OFFSET 0.73152 -45.1104 -5.12064
          CHANNELS 3 Zrotation Xrotation Yrotation
          End Site
          {
            OFFSET -1.1221 -3.69964 12.103
          }
        }
      }
    }
  }
  JOINT lButtock
  {
    OFFSET 8.77824 4.35084 1.2192
    CHANNELS 3 Zrotation Xrotation Yrotation
    JOINT lThigh
    {
      OFFSET 0 -1.70687 -2.19456
      CHANNELS 3 Zrotation Xrotation Yrotation
      JOINT lShin
      {
        OFFSET 0 -36.8199 0.73152
        CHANNELS 3 Zrotation Xrotation Yrotation
        JOINT lFoot
        {
          OFFSET -0.73152 -45.1104 -5.12064
          CHANNELS 3 Zrotation Xrotation Yrotation
          End Site
          {
            OFFSET 1.1221 -3.69964 12.103
          }
        }
      }
    }
  }
}
MOTION
Frames:	4
Frame Time:	0.00833333
-18.7194 86.5921 49.4557 -553.084 789.159 -904.768 -11.6768 4.74013 2.29973 -2.27333 1.54144 0.785475 -12.1284 24.7426 -16.7535 43.6549 -51.3232 -15.6104 -0.0 0.0 0.0 -0.0 0.0 0.0 -1.11212e-13 -2.75101e-13 -2.21645e-14 139.383 15.7794 108.393 -8.0403 -3.03289 14.1744 -157.515 56.1927 167.885 9.42853e-10 -1.77701e-10 -1.26109e-09 1.42491e-09 -3.16023e-10 -2.22686e-09 9.42884e-10 -1.77697e-10 -1.26112e-09 7.73091 5.47488 0.417314 9.42852e-10 -1.77698e-10 -1.26111e-09 2.90554 0.965183 0.102902 9.4286e-10 -1.77697e-10 -1.2611e-09 10.2786 0.731801 0.0259123 9.42849e-10 -1.77697e-10 -1.2611e-09 2.22167 -0.733487 -0.20892 -1.11433e-13 -2.75137e-13 -2.23633e-14 -75.3964 44.3155 -17.1004 25.2912 -47.5301 -98.8929 1.50147 32.531 -5.14298 1.55937e-09 -1.42935e-09 -9.12978e-10 2.66342e-09 -2.46398e-09 -1.61308e-09 1.55936e-09 -1.42935e-09 -9.12965e-10 -7.73091 5.47488 -0.417314 1.55937e-09 -1.42935e-09 -9.12985e-10 -2.90554 0.965183 -0.102902 1.55937e-09 -1.42935e-09 -9.12981e-10 -10.2786 0.731801 -0.0259123 1.55938e-09 -1.42935e-09 -9.12985e-10 -2.22167 -0.733487 0.20892 -2.03217e-16 0.0 -3.88251e-19 -15.2582 -37.1352 -20.0206 -0.2522 35.4064 0.385517 1.3755 -3.50703 14.4099 2.03217e-16 0.0 3.88251e-19 -0.776593 -20.2954 7.15012 0.267559 33.7742 -0.374992 -5.78875 -5.98504 -30.1189
-18.4488 86.6529 49.1548 -552.914 788.376 -904.598 -11.9852 4.60964 1.59237 -2.10135 1.67434 0.593985 -11.83 24.7963 -16.9533 42.5707 -50.3677 -16.8871 -0.0 0.0 0.0 -0.0 0.0 0.0 -9.50643e-14 -4.58983e-14 4.88715e-14 140.046 14.4738 107.734 -7.92591 -2.97144 13.9676 -157.076 57.2311 167.361 4.61119e-10 -1.29284e-11 -9.99072e-10 6.50613e-10 -6.07098e-11 -1.74595e-09 4.61152e-10 -1.29262e-11 -9.99097e-10 7.73091 5.47488 0.417314 4.61119e-10 -1.2926e-11 -9.99085e-10 2.90554 0.965183 0.102902 4.61126e-10 -1.29257e-11 -9.99082e-10 10.2786 0.731801 0.0259123 4.61116e-10 -1.29246e-11 -9.99078e-10 2.22167 -0.733487 -0.20892 -9.52408e-14 -4.59419e-14 4.86968e-14 -75.2082 43.5692 -16.9024 25.4945 -47.1708 -98.1228 1.48124 32.3322 -5.10403 1.67114e-09 -1.32025e-09 -5.23485e-10 2.86667e-09 -2.28449e-09 -9.43384e-10 1.67113e-09 -1.32025e-09 -5.23474e-10 -7.73091 5.47488 -0.417314 1.67114e-09 -1.32025e-09 -5.2349e-10 -2.90554 0.965183 -0.102902 1.67113e-09 -1.32025e-09 -5.23486e-10 -10.2786 0.731801 -0.0259123 1.67114e-09 -1.32025e-09 -5.23489e-10 -2.22167 -0.733487 0.20892 -2.03217e-16 0.0 -3.88251e-19 -14.6635 -36.6258 -18.5294 -0.234789 34.3279 0.357378 1.72829 -5.52154 13.4619 2.03217e-16 0.0 3.88251e-19 -0.873312 -19.8552 7.14871 0.264788 33.4404 -0.360786 -5.83643 -5.83996 -30.6331
-18.0873 86.6139 48.8972 -552.229 787.891 -904.02 -12.094 4.48685 0.889517 -2.20058 1.81593 0.410981 -11.4528 24.6858 -17.1045 41.2703 -49.2428 -18.1538 -0.0 0.0 0.0 -0.0 0.0 0.0 -6.14581e-14 2.72556e-13 1.34944e-13 139.18 12.5706 107.327 -7.87536 -2.94501 13.8755 -155.602 60.3711 165.636 -3.53152e-10 2.54844e-10 -5.26244e-10 -6.53159e-10 3.59147e-10 -8.80853e-10 -3.5312e-10 2.54843e-10 -5.26264e-10 7.73091 5.47488 0.417314 -3.53153e-10 2.54845e-10 -5.2625e-10 2.90554 0.965183 0.102902 -3.53147e-10 2.54845e-10 -5.26251e-10 10.2786 0.731801 0.0259123 -3.53156e-10 2.54848e-10 -5.26247e-10 2.22167 -0.733487 -0.20892 -6.15624e-14 2.7251e-13 1.34788e-13 -75.0214 42.6306 -16.2132 25.6465 -46.9093 -97.5391 1.45056 32.022 -5.04387 1.64023e-09 -1.0566e-09 1.01843e-11 2.82842e-09 -1.84042e-09 -2.13913e-11 1.64022e-09 -1.0566e-09 1.01927e-11 -7.73091 5.47488 -0.417314 1.64022e-09 -1.0566e-09 1.01812e-11 -2.90554 0.965183 -0.102902 1.64022e-09 -1.0566e-09 1.01868e-11 -10.2786 0.731801 -0.0259123 1.64023e-09 -1.0566e-09 1.01852e-11 -2.22167 -0.733487 0.20892 -2.03217e-16 0.0 -3.88251e-19 -13.9535 -36.1098 -17.0969 -0.226881 33.9012 0.346313 1.8326 -8.02326 11.1368 2.03217e-16 0.0 3.88251e-19 -0.947978 -19.3684 6.83125 0.264242 33.3117 -0.351539 -5.98798 -6.01721 -30.8025
-17.641 86.5149 48.66 -551.442 787.692 -903.467 -12.0102 4.34789 0.251614 -2.43434 1.95889 0.249118 -11.0884 24.4477 -17.1796 39.9249 -48.091 -19.2411 -0.0 0.0 0.0 -0.0 0.0 0.0 -2.25329e-14 5.12985e-13 1.90953e-13 137.217 10.3944 106.797 -7.87775 -2.94705 13.8787 -152.927 64.6995 162.628 -1.17642e-09 5.2951e-10 4.53423e-11 -1.96505e-09 7.90942e-10 1.53295e-10 -1.17639e-09 5.29506e-10 4.53286e-11 7.73091 5.47488 0.417314 -1.17642e-09 5.2951e-10 4.53444e-11 2.90554 0.965183 0.102902 -1.17641e-09 5.2951e-10 4.53386e-11 10.2786 0.731801 0.0259123 -1.17642e-09 5.29513e-10 4.53432e-11 2.22167 -0.733487 -0.20892 -2.25708e-14 5.12942e-13 1.90808e-13 -75.0388 41.4408 -15.1189 25.7517 -46.7332 -97.1323 1.39983 31.5255 -4.94709 1.47586e-09 -6.96653e-10 5.46626e-10 2.5597e-09 -1.22846e-09 9.08548e-10 1.47585e-09 -6.9665e-10 5.46632e-10 -7.73091 5.47488 -0.417314 1.47586e-09 -6.9665e-10 5.46625e-10 -2.90554 0.965183 -0.102902 1.47585e-09 -6.9665e-10 5.46633e-10 -10.2786 0.731801 -0.0259123 1.47586e-09 -6.96652e-10 5.46631e-10 -2.22167 -0.733487 0.20892 -2.03217e-16 0.0 -3.88251e-19 -13.0384 -35.5375 -15.6417 -0.225274 33.9255 0.347436 1.64754 -10.4229 8.52786 2.03217e-16 0.0 3.88251e-19 -0.918614 -18.9092 6.46527 0.266437 33.4004 -0.347282 -6.20188 -6.39225 -30.7435
